<?xml version="1.0" encoding="UTF-8" standalone="no"?>
<svg width="1584" height="396" viewBox="0 0 1584 396" xmlns="http://www.w3.org/2000/svg">
  <!-- Background -->
  <rect width="1584" height="396" fill="#ffffff"/>
  
  <!-- Golden Ratio Grid (subtle) -->
  <g opacity="0.1">
    <line x1="0" y1="244.8" x2="1584" y2="244.8" stroke="#000000" stroke-width="1"/>
    <line x1="0" y1="151.2" x2="1584" y2="151.2" stroke="#000000" stroke-width="1"/>
    <line x1="979.2" y1="0" x2="979.2" y2="396" stroke="#000000" stroke-width="1"/>
    <line x1="604.8" y1="0" x2="604.8" y2="396" stroke="#000000" stroke-width="1"/>
  </g>
  
  <!-- Logo and Brand -->
  <g transform="translate(200, 198)">
    <!-- Logo (Magnifying Glass) -->
    <circle cx="0" cy="0" r="50" fill="#111111"/>
    <circle cx="0" cy="-5" r="25" fill="none" stroke="white" stroke-width="5"/>
    <line x1="20" y1="15" x2="40" y2="35" stroke="white" stroke-width="5" stroke-linecap="round"/>
    
    <!-- Brand Name -->
    <text x="120" y="20" font-family="Inter, -apple-system, BlinkMacSystemFont, sans-serif" font-size="80" font-weight="600" fill="#111111">Synthara AI</text>
  </g>
  
  <!-- Tagline -->
  <text x="792" y="300" font-family="Inter, -apple-system, BlinkMacSystemFont, sans-serif" font-size="30" font-weight="400" fill="#666666" text-anchor="middle">The Golden Standard in Software Development</text>
  
  <!-- Golden Ratio Visualization (subtle) -->
  <g transform="translate(1200, 198)">
    <rect x="-100" y="-100" width="161.8" height="161.8" fill="none" stroke="#111111" stroke-width="2" opacity="0.2"/>
    <rect x="-100" y="-100" width="100" height="100" fill="none" stroke="#111111" stroke-width="2" opacity="0.2"/>
    <rect x="0" y="-100" width="61.8" height="61.8" fill="none" stroke="#111111" stroke-width="2" opacity="0.2"/>
    <rect x="0" y="-38.2" width="38.2" height="38.2" fill="none" stroke="#111111" stroke-width="2" opacity="0.2"/>
    <rect x="-38.2" y="-38.2" width="38.2" height="38.2" fill="none" stroke="#111111" stroke-width="2" opacity="0.2"/>
    <rect x="-38.2" y="0" width="23.6" height="23.6" fill="none" stroke="#111111" stroke-width="2" opacity="0.2"/>
    <rect x="-61.8" y="0" width="23.6" height="23.6" fill="none" stroke="#111111" stroke-width="2" opacity="0.2"/>
  </g>
</svg>
